<?xml version="1.0" encoding="UTF-8"?><svg id="Layer_1" xmlns="http://www.w3.org/2000/svg" viewBox="0 0 107.69 29.83"><defs><style>.cls-1,.cls-2{fill:#34322d;}.cls-2{fill-rule:evenodd;}</style></defs><path class="cls-1" d="M19.7,29.49c2.26-1.43,3.82-9.11,3.47-11.39,0,0-.36-1.23-1.23-1.23-.87,0-1.24.92-1.24.92,0,0-.23.85-.59,1.92-.56,1.65-.79,3.69-2.25,4.21-1.45.52-2.91.03-2.91.03.99,3.75,2.48,6.98,4.74,5.55Z"/><path class="cls-2" d="M8.52,15.44c-.83.09-1.27.41-1.41.55-.58.58-.87,1.16-.87,1.45s-.68-1.36-.83-1.52c-.45-.46-.44-1.2.02-1.64.65-.63,1.71-1.03,2.84-1.16,1.17-.13,2.56.02,3.97.64,1.64.73,2.52,2.26,2.85,3.66.17.71.21,1.44.13,2.11-.08.65-.3,1.34-.76,1.87-.96,1.1-2.37.97-3.13.81-.43-.09-.81-.23-1.08-.33-.14-.05-.25-.1-.33-.14-.04-.02-.07-.03-.1-.05-.01,0-.02-.01-.03-.01h0s0,0,0,0h0s0,0,.54-1.03l-.54,1.03c-.57-.3-.79-1-.49-1.57.3-.57,1-.79,1.57-.5M10.84,19.61h0s0,0,0,0ZM10.84,19.61h0s.03.02.05.03c.05.02.12.05.21.09.19.07.43.16.69.21.61.13.83,0,.9-.07.05-.06.16-.25.21-.64.05-.37.03-.81-.08-1.27-.22-.94-.76-1.73-1.53-2.07-1.01-.45-1.98-.54-2.77-.45"/><path class="cls-2" d="M.83,3.42c-.28.58-.04,1.27.53,1.56.83.41,1.55.81,2.26,1.61.43.48,1.16.52,1.64.1.48-.43.52-1.16.1-1.64-1.01-1.14-2.06-1.7-2.98-2.15-.58-.28-1.27-.04-1.56.53Z"/><path class="cls-2" d="M7.12.04c-.62.16-1,.79-.85,1.41.11.44.21.81.3,1.15.18.65.32,1.19.43,1.83.1.63.7,1.06,1.34.96.63-.1,1.06-.7.96-1.34-.13-.76-.32-1.48-.52-2.2-.09-.32-.17-.64-.26-.96-.16-.62-.79-1-1.41-.85Z"/><path class="cls-2" d="M13.77.75c-.55-.33-1.26-.16-1.6.39-.61,1-1.09,2.27-1.27,3.65-.08.64.37,1.22,1,1.3.64.08,1.22-.37,1.3-1,.14-1.05.5-2.01.95-2.75.33-.55.16-1.26-.39-1.6Z"/><path class="cls-2" d="M16.33,10.18q2.31.46,2.31.46h0s0,0,0,0h0s0-.02,0-.02c0-.01,0-.02,0-.04,0-.03,0-.06.01-.09,0-.07.02-.15.02-.24.01-.18.01-.45-.03-.76-.09-.58-.43-1.69-1.63-2.33l-.24-.13-.26-.07-.6,2.22c.53.28.4,1,.4,1ZM15.96,11.64l.37-1.46,2.31.46v.07s-.39,1.48-.39,1.48c-.07.36-.08.57-.08.68,0,.09.01.12.02.13h0s.05.12.19.33c.06.09.11.17.19.28.02.03.04.06.06.09.1.15.22.32.34.51.77,1.21.85,2.36.85,3.11,0,.01,0,.02,0,.03.09.03.19.06.3.1.03.01.08.03.13.04.07.02.14.04.19.06.1.03.23.07.35.12.09.03.17.06.25.1.08.03.17.07.26.12.07.04.2.1.33.2l1.21.52-.02,1.55c-.01.91-.38,1.88-.64,2.47-.29.66-.67,1.36-1.02,1.82-.49.65-1.04,1.34-1.71,1.78-.39.26-.87.46-1.42.53-.5.06-.93,0-1.24-.08l-.09-.02c-.09-.02-.23-.05-.39-.08-.33-.07-.77-.16-1.24-.26-.87-.19-2.05-.45-2.61-.64h-.04s-.04-.03-.04-.03c-.25-.09-.66-.19-1.36-.35-.04,0-.08-.02-.13-.03-.6-.14-1.33-.3-2.03-.51-.72-.22-1.61-.54-2.37-1.07-.79-.55-1.7-1.53-1.75-3,0-.22,0-.43.01-.63-.36-.39-.66-.89-.81-1.54-.15-.63-.07-1.19.04-1.58.1-.39.26-.74.39-1,.04-.09.09-.17.14-.26-.44-.14-.93-.31-1.41-.51-.63-.27-1.51-.71-2.18-1.42-.36-.38-.73-.93-.88-1.65-.16-.75-.03-1.47.28-2.09.75-1.5,2.18-2.03,3.46-2.08,1.15-.04,2.38.28,3.47.67,1,.35,2.43,1,3.65,1.57.4-.66.93-1.4,1.43-2l.1-.12.11-.1c.86-.78,1.83-1.05,2.56-1.1.36-.03.67,0,.9.02.12.02.22.03.3.05.04,0,.08.02.11.02.02,0,.03,0,.04.01h.02s0,0,0,0h0s0,0,0,0t-.59,2.22s-.93-.26-1.73.45c0,0-.02.01-.02.02-.02.03-.05.06-.07.09-.04.04-.07.09-.11.13-.01.01-.02.03-.03.04-.8,1.01-.75,1.43-2.2,3.18,0,0-.76-.35-1.21-.56-.31-.15-.64-.3-.97-.46-1.08-.5-2.23-1.02-3.05-1.31-2.03-.71-3.53-.8-4.07.29-.72,1.44,2.2,2.28,3.67,2.7.31.09.55.16.69.21.75.3.81.91.58,1.45-.13.32-.21.5-.58.87-.58.58-.68,1.27-.57,1.75.06.24.17.41.3.54.35.34.85.34.85.34,0,0-.32.82-.29,1.74,0,.2.06.39.16.56.56,1,2.5,1.44,4.14,1.82.69.16,1.32.3,1.77.47.81.27,4.11.94,4.11.94.61.16.99-.03,1.99-1.37.42-.55,1.2-2.12,1.21-2.97-.13-.05-.14-.07-.14-.09-.01-.03-.02-.05-.34-.17-.11-.04-.25-.09-.41-.14-.68-.22-1.72-.54-2-1.07-.14-.26-.12-.6-.11-1.01.02-.63.04-1.4-.47-2.19-.13-.2-.25-.37-.36-.54-.64-.94-1.03-1.51-.68-3.23ZM5.21,14.48s0,0,0,0h0ZM19.81,18.06s0,0,0-.02c0,.02,0,.02,0,.02Z"/><path class="cls-1" d="M100.1,21.12h-.68v-4h.92c.25,1.06.61,1.83,1.08,2.31.47.48,1.08.73,1.83.73.54,0,.96-.11,1.25-.33.31-.23.46-.55.46-.95s-.18-.81-.55-1.19c-.37-.4-.96-.81-1.78-1.25-1.11-.6-1.91-1.2-2.4-1.78-.48-.6-.73-1.28-.73-2.02,0-.48.09-.93.26-1.34.19-.43.44-.79.75-1.1.32-.31.7-.54,1.14-.7.44-.18.92-.26,1.43-.26.45,0,.9.07,1.34.2.46.13.85.32,1.19.55l.4-.53h.57v3.32h-.86c-.34-.84-.69-1.44-1.06-1.8-.35-.37-.78-.55-1.3-.55-.41,0-.74.11-.99.33-.23.22-.35.51-.35.88,0,.41.18.8.53,1.17.37.37.97.77,1.8,1.21.59.32,1.09.64,1.52.95.43.31.77.62,1.03.95.26.31.46.64.57.99.13.34.2.7.2,1.1,0,.51-.1.98-.29,1.39-.19.41-.46.76-.81,1.06-.35.29-.78.52-1.28.68-.48.16-1.03.24-1.63.24s-1.22-.08-1.76-.24c-.54-.18-.99-.43-1.34-.75l-.48.77Z"/><path class="cls-1" d="M93.08,13.07c0-.59-.01-1.05-.04-1.39-.03-.35-.11-.62-.24-.79-.13-.19-.33-.32-.59-.37-.25-.07-.59-.13-1.03-.18v-.88h4.97v6.67c0,.89,0,1.6.02,2.11.03.5.07.87.13,1.12.04.19.1.34.15.46.06.1.15.19.29.26.13.06.31.1.53.13.24.01.54.02.9.02v.86l-4.38.26-.24-1.96h-.09c-.38.62-.92,1.09-1.61,1.43-.69.34-1.46.51-2.31.51-1.57,0-2.76-.56-3.59-1.67-.63-.85-.95-2.06-.95-3.63v-2.97c0-.6-.01-1.07-.04-1.41-.03-.35-.11-.62-.24-.79-.12-.18-.3-.29-.55-.35-.25-.07-.59-.13-1.03-.18v-.88h4.93v6.23c0,1.48.18,2.56.55,3.23.37.66.95.99,1.76.99.87,0,1.53-.4,2-1.19.47-.76.7-1.88.7-3.37v-2.29Z"/><path class="cls-1" d="M72.74,17.54c0,.6.01,1.08.04,1.43.04.34.12.6.24.79.13.18.32.29.57.35.26.06.62.1,1.06.13v.88h-6.93v-.88c.43-.03.76-.07,1.01-.13.26-.06.46-.18.59-.35.15-.18.24-.43.29-.75.04-.32.07-.76.07-1.32v-2.75c0-.87-.01-1.56-.04-2.09-.03-.54-.07-.91-.11-1.1-.04-.19-.1-.34-.18-.46-.07-.13-.18-.23-.33-.29-.15-.07-.33-.12-.55-.13-.22-.03-.5-.04-.84-.04v-.75l4.25-.84.29,1.94h.09c.48-.62,1.06-1.09,1.72-1.43.66-.34,1.39-.51,2.18-.51.94,0,1.69.13,2.27.4.59.25,1.11.67,1.56,1.28.25.34.47.78.66,1.32.19.53.29,1.26.29,2.2v3.1c0,.6.01,1.08.04,1.43.04.34.12.6.24.79.13.18.32.29.57.35.25.06.59.1,1.01.13v.88h-6.89v-.88c.44-.01.78-.05,1.03-.11.26-.07.46-.2.59-.37.13-.18.22-.43.26-.75.04-.34.07-.78.07-1.32v-2.99c0-.75-.04-1.38-.13-1.89-.09-.51-.23-.92-.44-1.23-.19-.32-.45-.55-.77-.68-.32-.15-.73-.22-1.21-.22s-.87.13-1.21.4c-.34.26-.63.63-.88,1.1-.13.26-.25.61-.35,1.03-.09.41-.13.84-.13,1.3v3.04Z"/><path class="cls-1" d="M62.24,14.85c-1.23.56-2.16,1.08-2.79,1.56-.62.47-.92.96-.92,1.47,0,.43.12.76.35,1.01.23.25.53.37.88.37s.68-.06.99-.18c.31-.13.57-.3.79-.51.22-.21.39-.45.51-.73.13-.29.2-.6.2-.92v-2.09ZM62.24,13.69v-.92c0-.85-.15-1.47-.46-1.85-.29-.4-.76-.59-1.39-.59-.43,0-.75.12-.97.35-.22.22-.43.59-.62,1.12-.13.37-.32.65-.57.86-.23.21-.56.31-.99.31s-.73-.12-.95-.37c-.22-.25-.33-.6-.33-1.06,0-.7.38-1.26,1.14-1.67.78-.41,1.94-.62,3.5-.62,1.64,0,2.82.3,3.52.9.7.59,1.06,1.58,1.06,2.97v4.82c0,1.25.25,1.87.75,1.87.28,0,.54-.1.77-.29l.33.64c-.21.37-.53.66-.97.88-.43.21-.91.31-1.45.31-.67,0-1.19-.21-1.54-.62-.35-.41-.53-.99-.53-1.74h-.11c-.43.76-.98,1.34-1.65,1.74-.67.4-1.44.59-2.31.59-.92,0-1.66-.26-2.22-.77-.56-.53-.84-1.21-.84-2.05,0-.65.29-1.25.86-1.8.57-.57,1.53-1.13,2.86-1.67l3.1-1.34Z"/><path class="cls-1" d="M36.23,17.49c0,.62.01,1.1.04,1.45.03.35.11.62.24.81.13.18.32.29.57.35.25.06.59.1,1.03.13v.88h-6.95v-.88c.44-.03.79-.07,1.06-.13.26-.06.46-.18.59-.35.13-.18.22-.43.26-.75.04-.34.07-.78.07-1.34v-2.73c0-.84-.01-1.53-.04-2.09-.01-.56-.05-.94-.11-1.14-.04-.19-.1-.34-.18-.44-.06-.12-.16-.21-.31-.26-.13-.07-.31-.12-.53-.13-.22-.03-.51-.04-.86-.04v-.75l4.25-.84.26,1.91h.13c.62-.69,1.23-1.18,1.85-1.47.63-.29,1.36-.44,2.18-.44.97,0,1.77.17,2.4.51.63.34,1.11.82,1.43,1.45h.09c.53-.62,1.16-1.09,1.89-1.43.73-.35,1.52-.53,2.35-.53.88,0,1.64.11,2.29.33.66.22,1.17.54,1.54.95.29.34.51.78.64,1.32.15.54.22,1.3.22,2.27v3.39c0,.6.01,1.08.04,1.43.04.35.13.62.26.81.13.19.32.32.57.37.25.06.59.1,1.03.13v.88h-6.95v-.88c.44-.01.78-.05,1.03-.11.26-.07.46-.2.59-.37.15-.19.23-.45.26-.77.04-.32.07-.76.07-1.32v-2.88c0-.76-.04-1.41-.13-1.94-.09-.53-.23-.95-.42-1.28-.19-.32-.45-.55-.77-.68-.31-.15-.69-.22-1.14-.22-.51,0-.94.12-1.28.37-.32.25-.59.57-.81.97-.38.69-.57,1.55-.57,2.57v2.9c0,.6.01,1.08.04,1.43.03.35.11.62.24.81.13.19.32.32.57.37.26.06.62.1,1.08.13v.88h-6.97v-.88c.44-.03.78-.07,1.03-.13.26-.06.46-.18.59-.35.15-.18.23-.43.26-.75.04-.34.07-.78.07-1.34v-2.88c0-.76-.04-1.41-.13-1.94s-.23-.95-.44-1.28c-.19-.32-.45-.55-.77-.68-.32-.15-.73-.22-1.21-.22s-.89.12-1.21.35c-.31.23-.56.55-.77.95-.19.35-.34.76-.44,1.21-.1.45-.15.92-.15,1.41v2.9Z"/></svg>